<!-- Generated by IcoMoon.io -->
<svg version="1.1" xmlns="http://www.w3.org/2000/svg" width="336" height="768" viewBox="0 0 336 768">
<path fill="#fff" d="M307.221 454.378q-11.957 0-20.234-8.737t-8.278-20.694 8.278-20.694 20.234-8.737 20.234 8.737 8.278 20.694-8.278 20.694-20.234 8.737zM333.893 23.027l-9.197-0.919t-15.635 0.919q-9.197 1.84-15.635 5.978t-12.876 11.497q-11.957 11.956-17.935 31.73t-13.336 52.884l-34.949 172.908-5.518 25.752h104.849l-4.598 14.716h-103.010l-60.702 289.713q-6.438 31.27-15.176 57.943t-31.73 48.745q-15.635 15.635-35.41 24.373t-40.928 8.738h-10.117l1.84-10.117h9.197q11.957-1.84 20.234-6.438t15.635-13.795q11.037-14.716 17.475-32.191t13.795-50.585l66.22-316.385h-94.732l3.679-14.716h93.812l6.438-27.592 28.511-144.397q6.438-31.271 15.635-57.943t31.27-48.745q15.635-15.635 35.41-24.373t40.928-8.738l6.438 0.46t11.957 0.46l-1.84 10.117z"></path>
</svg>
